# xmcd CD database file
#
# Track frame offsets:
#	150
#	13740
#	25197
#	38440
#	49457
#	61572
#	80375
#	95872
#	110220
#	125775
#	140755
#	154242
#	171675
#	193492
#	205795
#	215467
#	228515
#	241460
#	256997
#	270560
#
# Disc length: 3825 seconds
#
# Revision: 5
# Processed by: cddbd v1.5.1PL0 Copyright (c) Steve Scherf et al.
# Submitted via: CDex 1.51
#
DISCID=310eef14
DTITLE=Waylon Jennings - Only Daddy That'll Walk The Line - The RCA Years [Disc 2]
DYEAR=1993
DGENRE=Country
TTITLE0=Amanda
TTITLE1=Rainy Day Woman
TTITLE2=Are You Sure Hank Done It This Way
TTITLE3=Deaming My Dreams With You
TTITLE4=Waymore's Blues
TTITLE5=T For Texas
TTITLE6=Bob Wills Is Still The King
TTITLE7=Are You Ready For The Country
TTITLE8=Jack-A-Diamonds
TTITLE9=Luckenbach, Texas (Back To The Basics Of Love)
TTITLE10=Don't You Think This Outlaw Bit's Done Got Out Of Hand
TTITLE11=The Conversation
TTITLE12=I Ain't Living Long Like This
TTITLE13=Clyde
TTITLE14=Theme From Dukes Of Hazzard (Good Ol' Boys)
TTITLE15=Storms Never Last
TTITLE16=Shine
TTITLE17=Lucille (You Won't Do Your Daddy's Will)
TTITLE18=Never Could Toe The Mark
TTITLE19=Looking For Suzanne
EXTD=YEAR: 1993
EXTT0=BOB McDILL
EXTT1=
EXTT2=
EXTT3=
EXTT4=
EXTT5=JIMMIE RODGERS
EXTT6=WAYLON JENNINGS
EXTT7=
EXTT8=
EXTT9=
EXTT10=
EXTT11=
EXTT12=
EXTT13=
EXTT14=WAYLON JENNINGS
EXTT15=JESSI COLTER
EXTT16=
EXTT17=
EXTT18=WAYLON JENNINGS
EXTT19=
PLAYORDER=
